<?xml version="1.0" encoding="UTF-8" standalone="no"?>
<!-- Created with Inkscape (http://www.inkscape.org/) -->

<svg
   version="1.1"
   id="svg1"
   width="707.81775"
   height="119.18668"
   viewBox="0 0 707.81774 119.18668"
   xmlns="http://www.w3.org/2000/svg"
   xmlns:svg="http://www.w3.org/2000/svg">
  <defs
     id="defs1">
    <clipPath
       clipPathUnits="userSpaceOnUse"
       id="clipPath2">
      <path
         d="M 0,792 H 612 V 0 H 0 Z"
         transform="translate(-110.805,-400.73031)"
         id="path2" />
    </clipPath>
    <clipPath
       clipPathUnits="userSpaceOnUse"
       id="clipPath4">
      <path
         d="M 0,792 H 612 V 0 H 0 Z"
         transform="translate(-129.7152,-399.71681)"
         id="path4" />
    </clipPath>
    <clipPath
       clipPathUnits="userSpaceOnUse"
       id="clipPath6">
      <path
         d="M 0,792 H 612 V 0 H 0 Z"
         transform="translate(-180.2784,-386.99021)"
         id="path6" />
    </clipPath>
    <clipPath
       clipPathUnits="userSpaceOnUse"
       id="clipPath8">
      <path
         d="M 0,792 H 612 V 0 H 0 Z"
         transform="translate(-227.12211,-386.99021)"
         id="path8" />
    </clipPath>
    <clipPath
       clipPathUnits="userSpaceOnUse"
       id="clipPath10">
      <path
         d="M 0,792 H 612 V 0 H 0 Z"
         transform="translate(-259.6621,-399.71681)"
         id="path10" />
    </clipPath>
    <clipPath
       clipPathUnits="userSpaceOnUse"
       id="clipPath12">
      <path
         d="M 0,792 H 612 V 0 H 0 Z"
         transform="translate(-304.36691,-364.91691)"
         id="path12" />
    </clipPath>
    <clipPath
       clipPathUnits="userSpaceOnUse"
       id="clipPath14">
      <path
         d="M 0,792 H 612 V 0 H 0 Z"
         transform="translate(-346.25641,-399.71681)"
         id="path14" />
    </clipPath>
    <clipPath
       clipPathUnits="userSpaceOnUse"
       id="clipPath16">
      <path
         d="M 0,792 H 612 V 0 H 0 Z"
         transform="translate(-407.63041,-394.31091)"
         id="path16" />
    </clipPath>
    <clipPath
       clipPathUnits="userSpaceOnUse"
       id="clipPath18">
      <path
         d="M 0,792 H 612 V 0 H 0 Z"
         transform="translate(-454.81191,-394.31091)"
         id="path18" />
    </clipPath>
    <clipPath
       clipPathUnits="userSpaceOnUse"
       id="clipPath20">
      <path
         d="M 0,792 H 612 V 0 H 0 Z"
         id="path20" />
    </clipPath>
    <clipPath
       clipPathUnits="userSpaceOnUse"
       id="clipPath22">
      <path
         d="M 0,792 H 612 V 0 H 0 Z"
         transform="translate(-525.75311,-386.99021)"
         id="path22" />
    </clipPath>
    <clipPath
       clipPathUnits="userSpaceOnUse"
       id="clipPath24">
      <path
         d="M 0,792 H 612 V 0 H 0 Z"
         transform="translate(-563.58791,-394.31091)"
         id="path24" />
    </clipPath>
    <clipPath
       clipPathUnits="userSpaceOnUse"
       id="clipPath26">
      <path
         d="M 0,792 H 612 V 0 H 0 Z"
         transform="translate(-103.7913,-394.54751)"
         id="path26" />
    </clipPath>
    <clipPath
       clipPathUnits="userSpaceOnUse"
       id="clipPath28">
      <path
         d="M 0,792 H 612 V 0 H 0 Z"
         transform="translate(-105.98571,-393.31411)"
         id="path28" />
    </clipPath>
    <clipPath
       clipPathUnits="userSpaceOnUse"
       id="clipPath30">
      <path
         d="M 0,792 H 612 V 0 H 0 Z"
         transform="translate(-105.3232,-397.44961)"
         id="path30" />
    </clipPath>
    <clipPath
       clipPathUnits="userSpaceOnUse"
       id="clipPath32">
      <path
         d="M 0,792 H 612 V 0 H 0 Z"
         transform="translate(-318.23321,-418.24751)"
         id="path32" />
    </clipPath>
    <clipPath
       clipPathUnits="userSpaceOnUse"
       id="clipPath34">
      <path
         d="M 0,792 H 612 V 0 H 0 Z"
         transform="translate(-310.26781,-363.16971)"
         id="path34" />
    </clipPath>
    <clipPath
       clipPathUnits="userSpaceOnUse"
       id="clipPath36">
      <path
         d="M 0,792 H 612 V 0 H 0 Z"
         transform="translate(-298.807,-401.25941)"
         id="path36" />
    </clipPath>
  </defs>
  <g
     id="layer-MC0"
     transform="translate(-54.620621,-469.56085)">
    <path
       id="path1"
       d="m 0,0 -0.113,-36.602 c -6.757,-4.617 -15.992,-7.434 -24.326,-7.434 -21.736,0 -39.305,17.457 -39.305,39.081 0,21.848 17.682,39.305 39.868,39.305 6.194,0 12.276,-1.351 18.808,-4.055 l -1.464,-7.094 c -5.744,2.815 -12.163,4.392 -17.907,4.392 -17.569,0 -31.422,-14.416 -31.422,-32.661 0,-18.132 13.627,-32.435 30.971,-32.435 5.744,0 11.826,1.577 17.231,4.505 l 0.352,32.828"
       style="fill:#4caf50;fill-opacity:1;fill-rule:nonzero;stroke:none"
       transform="matrix(1.3333333,0,0,-1.3333333,147.74,521.69293)"
       clip-path="url(#clipPath2)" />
    <path
       id="path3"
       d="m 0,0 v -4.055 c 2.59,3.266 5.068,4.844 8.108,4.844 3.042,0 5.632,-1.915 7.772,-5.97 L 11.712,-11.6 C 10.248,-7.771 8.559,-5.857 6.532,-5.857 2.59,-5.857 0,-11.374 0,-19.709 V -41.445 H -6.87 V 0 Z"
       style="fill:#4caf50;fill-opacity:1;fill-rule:nonzero;stroke:none"
       transform="matrix(1.3333333,0,0,-1.3333333,172.9536,523.04427)"
       clip-path="url(#clipPath4)" />
    <path
       id="path5"
       d="m 0,0 c -1.915,5.068 -5.857,8.109 -10.699,8.109 -6.87,0 -11.938,-4.955 -12.502,-12.389 z m -22.637,-10.586 c 1.013,-7.771 7.208,-13.402 14.754,-13.402 4.279,0 9.122,1.689 12.951,4.504 l 2.478,-5.18 c -4.505,-3.604 -9.686,-5.294 -15.429,-5.294 -12.952,0 -22.412,9.799 -22.412,23.088 0,12.164 8.334,21.061 19.596,21.061 10.361,0 16.668,-6.195 19.371,-19.033 z"
       style="fill:#4caf50;fill-opacity:1;fill-rule:nonzero;stroke:none"
       transform="matrix(1.3333333,0,0,-1.3333333,240.3712,540.01307)"
       clip-path="url(#clipPath6)" />
    <path
       id="path7"
       d="m 0,0 c -1.915,5.068 -5.857,8.109 -10.699,8.109 -6.87,0 -11.938,-4.955 -12.502,-12.389 z m -22.637,-10.586 c 1.014,-7.771 7.208,-13.402 14.754,-13.402 4.279,0 9.122,1.689 12.951,4.504 l 2.478,-5.18 c -4.505,-3.604 -9.686,-5.294 -15.429,-5.294 -12.952,0 -22.412,9.799 -22.412,23.088 0,12.164 8.334,21.061 19.596,21.061 10.361,0 16.668,-6.195 19.371,-19.033 z"
       style="fill:#4caf50;fill-opacity:1;fill-rule:nonzero;stroke:none"
       transform="matrix(1.3333333,0,0,-1.3333333,302.82947,540.01307)"
       clip-path="url(#clipPath8)" />
    <path
       id="path9"
       d="m 0,0 c 13.965,0.225 20.722,-6.082 20.384,-19.146 v -22.299 h -7.208 v 20.159 c 0.338,10.699 -3.603,15.092 -13.289,14.867 h -6.983 v -35.026 h -6.982 V 0 Z"
       style="fill:#4caf50;fill-opacity:1;fill-rule:nonzero;stroke:none"
       transform="matrix(1.3333333,0,0,-1.3333333,346.21613,523.04427)"
       clip-path="url(#clipPath10)" />
    <path
       id="path11"
       d="m 0,0 c 5.744,0 9.01,0.45 11.487,1.576 4.506,2.253 7.208,6.645 7.208,12.051 0,8.784 -6.306,13.852 -17.344,13.852 H -3.491 V 0 Z m 1.013,34.124 c 4.956,0 8.335,0.676 11.037,2.253 4.281,2.59 6.645,7.095 6.645,12.614 0,8.784 -5.181,12.951 -15.88,12.951 H -3.491 V 34.124 Z m -0.788,34.35 c 7.096,0 12.051,-0.788 15.542,-2.59 6.757,-3.266 10.699,-9.573 10.699,-17.119 0,-7.546 -4.167,-14.19 -11.15,-17.682 7.659,-4.392 11.15,-9.797 11.15,-17.569 0,-7.996 -4.28,-14.978 -11.262,-18.132 C 12.163,-5.969 7.659,-6.645 0.789,-6.645 h -12.051 v 75.119 z"
       style="fill:#2196f3;fill-opacity:1;fill-rule:nonzero;stroke:none"
       transform="matrix(1.3333333,0,0,-1.3333333,405.82253,569.44413)"
       clip-path="url(#clipPath12)" />
    <path
       id="path13"
       d="m 0,0 v -20.835 c 0,-7.208 0.451,-9.911 2.027,-12.389 1.915,-2.815 4.618,-4.279 7.996,-4.279 4.955,0 8.897,3.266 9.799,7.996 0.45,2.365 0.562,4.504 0.562,8.334 V 0 h 6.87 v -22.637 c 0,-3.717 -0.225,-6.081 -1.013,-8.897 -2.027,-7.433 -8.446,-12.164 -16.331,-12.164 -7.32,0 -13.289,4.055 -15.767,10.7 -0.9,2.478 -1.238,5.856 -1.238,11.374 V 0 Z"
       style="fill:#2196f3;fill-opacity:1;fill-rule:nonzero;stroke:none"
       transform="matrix(1.3333333,0,0,-1.3333333,461.6752,523.04427)"
       clip-path="url(#clipPath14)" />
    <path
       id="path15"
       d="m 0,0 c -11.263,0 -17.908,-5.631 -17.908,-15.316 0,-5.745 2.703,-10.474 7.546,-12.84 2.591,-1.238 5.857,-1.802 10.586,-1.802 H 5.181 V 0 Z M 12.275,-36.039 H 1.463 c -8.447,0 -13.288,0.9 -17.006,3.266 -5.969,3.717 -9.572,10.249 -9.572,17.795 0,10.698 7.095,18.807 18.131,20.835 1.014,0.225 5.069,0.45 12.165,0.675 v 32.66 l 7.094,2.478 z"
       style="fill:#2196f3;fill-opacity:1;fill-rule:nonzero;stroke:none"
       transform="matrix(1.3333333,0,0,-1.3333333,543.5072,530.25213)"
       clip-path="url(#clipPath16)" />
    <path
       id="path17"
       d="m 0,0 c -11.263,0 -17.908,-5.631 -17.908,-15.316 0,-5.745 2.703,-10.474 7.546,-12.84 2.591,-1.238 5.857,-1.802 10.586,-1.802 H 5.181 V 0 Z M 12.275,-36.039 H 1.463 c -8.447,0 -13.288,0.9 -17.006,3.266 -5.968,3.717 -9.572,10.249 -9.572,17.795 0,10.698 7.095,18.807 18.131,20.835 1.014,0.225 5.069,0.45 12.165,0.675 v 32.66 l 7.094,2.478 z"
       style="fill:#2196f3;fill-opacity:1;fill-rule:nonzero;stroke:none"
       transform="matrix(1.3333333,0,0,-1.3333333,606.41587,530.25213)"
       clip-path="url(#clipPath18)" />
    <path
       id="path19"
       d="m 485.552,358.272 h -6.759 v 41.445 h 6.759 z m 0,54.171 h -6.759 v 10.361 h 6.759 z"
       style="fill:#2196f3;fill-opacity:1;fill-rule:nonzero;stroke:none"
       transform="matrix(1.3333333,0,0,-1.3333333,0,1056)"
       clip-path="url(#clipPath20)" />
    <path
       id="path21"
       d="m 0,0 c -1.913,5.068 -5.855,8.109 -10.698,8.109 -6.87,0 -11.939,-4.955 -12.501,-12.389 z m -22.637,-10.586 c 1.014,-7.771 7.208,-13.402 14.754,-13.402 4.281,0 9.122,1.689 12.952,4.504 l 2.478,-5.18 c -4.505,-3.604 -9.686,-5.294 -15.43,-5.294 -12.951,0 -22.412,9.799 -22.412,23.088 0,12.164 8.334,21.061 19.597,21.061 10.36,0 16.668,-6.195 19.371,-19.033 z"
       style="fill:#2196f3;fill-opacity:1;fill-rule:nonzero;stroke:none"
       transform="matrix(1.3333333,0,0,-1.3333333,701.00413,540.01307)"
       clip-path="url(#clipPath22)" />
    <path
       id="path23"
       d="m 0,0 c -2.027,0.451 -3.604,0.563 -5.293,0.563 -4.843,0 -7.997,-2.478 -7.997,-6.082 0,-2.252 1.015,-3.491 5.407,-6.419 6.532,-4.393 8.784,-7.546 8.784,-12.389 0,-7.546 -6.87,-12.951 -16.442,-12.951 -2.704,0 -4.731,0.225 -7.772,0.788 l 1.014,5.632 c 3.154,-0.338 5.181,-0.451 6.532,-0.451 5.631,0 9.347,2.703 9.347,6.87 0,2.591 -1.126,4.055 -5.969,7.32 -6.306,4.28 -8.109,6.758 -8.109,11.262 0,7.321 6.082,12.389 14.753,12.389 2.141,0 4.394,-0.225 7.096,-0.675 z"
       style="fill:#2196f3;fill-opacity:1;fill-rule:nonzero;stroke:none"
       transform="matrix(1.3333333,0,0,-1.3333333,751.45053,530.25213)"
       clip-path="url(#clipPath24)" />
    <path
       id="path25"
       d="m 0,0 c -3.568,0 -6.175,1.625 -7.621,3.32 -1.445,1.695 -2.308,3.813 -2.907,5.959 -0.627,2.244 -1.083,4.724 -2.813,6.287 1.204,-0.608 2.395,-1.075 3.683,-1.474 1.437,-0.445 3.548,-0.683 4.625,-0.895 1.858,-0.365 4.636,-1.399 6.351,-3.388 C 2.838,8.046 4.28,5.735 3.54,3.528 L 1.888,1.21"
       style="fill:#4caf50;fill-opacity:1;fill-rule:nonzero;stroke:none"
       transform="matrix(1.3333333,0,0,-1.3333333,138.3884,529.93667)"
       clip-path="url(#clipPath26)" />
    <path
       id="path27"
       d="m 0,0 c -4.77,2.892 -9.294,2.37 -12.257,1.282 -1.907,-0.701 -3.605,-1.853 -5.448,-2.707 -2.385,-1.105 -5.017,-1.699 -7.568,-1.708 3.239,-0.812 5.982,-2.54 9.073,-3.594 4.108,-1.4 11.052,-2.464 16.619,2.26"
       style="fill:#4caf50;fill-opacity:1;fill-rule:nonzero;stroke:none"
       transform="matrix(1.3333333,0,0,-1.3333333,141.31427,531.5812)"
       clip-path="url(#clipPath28)" />
    <path
       id="path29"
       d="m 0,0 c -0.05,2.574 1.283,5.001 3.003,6.916 1.721,1.915 3.831,3.43 5.762,5.133 2.069,1.823 3.94,3.87 5.57,6.094 C 12.367,15.212 11.838,11.583 11.226,8.107 10.614,4.63 9.779,0.995 7.391,-1.604 6.052,-3.062 3.866,-4.129 0,0"
       style="fill:#4caf50;fill-opacity:1;fill-rule:nonzero;stroke:none"
       transform="matrix(1.3333333,0,0,-1.3333333,140.43093,526.0672)"
       clip-path="url(#clipPath30)" />
    <path
       id="path31"
       d="m 0,0 c -2.009,-1.037 -3.467,-2.886 -4.708,-4.775 -2.832,-4.31 -4.88,-9.133 -6.012,-14.164 -0.46,-2.042 -0.769,-4.167 -0.372,-6.222 1.257,-6.504 8.848,-10.17 10.494,-16.587 2.001,-7.808 -4.218,-12.424 -8.887,-13.213 -5.111,-0.864 -10.95,3.165 -12.117,9.035 -2.638,13.272 0.141,27.612 8.06,38.584 2.007,2.782 4.373,5.399 7.385,7.039 C -3.144,1.337 0.609,1.883 0,0"
       style="fill:#2196f3;fill-opacity:1;fill-rule:nonzero;stroke:#ffffff;stroke-width:1;stroke-linecap:butt;stroke-linejoin:miter;stroke-miterlimit:10;stroke-dasharray:none;stroke-opacity:1"
       transform="matrix(1.3333333,0,0,-1.3333333,424.31093,498.33667)"
       clip-path="url(#clipPath32)" />
    <path
       id="path33"
       d="M 0,0 C 5.154,1.664 7.596,3.909 9.847,6.703"
       style="fill:#ffffff;fill-opacity:1;fill-rule:nonzero;stroke:none"
       transform="matrix(1.3333333,0,0,-1.3333333,413.6904,571.77373)"
       clip-path="url(#clipPath34)" />
    <path
       id="path35"
       d="m 0,0 c 1.002,2.834 1.952,6.56 2.069,9.241 0.027,0.613 0.717,3.617 1.206,3.987 2.549,1.927 2.642,-3.764 1.853,-5.563"
       style="fill:#ffffff;fill-opacity:1;fill-rule:nonzero;stroke:none"
       transform="matrix(1.3333333,0,0,-1.3333333,398.40933,520.98747)"
       clip-path="url(#clipPath36)" />
  </g>
</svg>
